#!OML:ASF H:\Terrain\Patient Classification 1\Takeo\Monday\TakeoMonday.ASF
:FULLY-SPECIFIED
:DEGREES
1118
root 9.96376 11.4662 -2.54417 23.5102 8.80238 10.3737
lowerback 49.3711 -5.76264 11.9946
upperback 13.2613 -0.222546 4.71978
thorax -5.18387 0.0935756 -0.2964
lowerneck -14.6713 -10.755 -7.22506
upperneck -2.89732 -13.6371 11.4615
head 2.75154 -6.52199 3.60178
rclavicle 1.27222e-014 -6.08281e-014
rhumerus 36.5652 5.23341 -46.511
rradius 40.2519
rwrist 1.46781
rhand -41.1241 48.7334
rfingers 7.12502
rthumb -14.0513 19.2284
lclavicle 1.27222e-014 -6.08281e-014
lhumerus -13.1475 -15.0373 92.6313
lradius 65.6201
lwrist 38.8583
lhand -30.9238 13.1901
lfingers 7.12502
lthumb -4.20959 43.1283
rfemur -100.4 -16.9696 6.77451
rtibia 104.38
rfoot -20.9755 -0.474337
rtoes -3.94926
lfemur -82.0461 -10.6632 -44.1145
ltibia 108.973
lfoot -46.2496 35.8417
ltoes -3.47013
1119
root 9.95697 11.4069 -2.54727 23.3326 9.31037 10.1305
lowerback 48.8246 -6.69241 13.5069
upperback 13.4382 -0.816484 3.65279
thorax -4.83051 -0.0435948 -1.88041
lowerneck -14.0725 -10.6567 -6.4075
upperneck -3.04333 -13.6726 12.2159
head 2.63401 -6.54346 3.72929
rclavicle -1.27222e-014 1.07344e-014
rhumerus 36.1262 4.64845 -48.3001
rradius 40.1556
rwrist 1.86113
rhand -41.0652 49.2649
rfingers 7.12502
rthumb -13.9945 19.756
lclavicle -1.27222e-014 1.07344e-014
lhumerus -12.9325 -15.9524 90.9966
lradius 65.7316
lwrist 38.9842
lhand -30.4353 13.3846
lfingers 7.12502
lthumb -3.73783 43.3316
rfemur -100.51 -17.1955 7.10115
rtibia 104.886
rfoot -21.1263 -0.410679
rtoes -3.41573
lfemur -82.2258 -10.9216 -43.8119
ltibia 109.568
lfoot -46.2039 35.5815
ltoes -2.99288
1120
root 9.94863 11.3654 -2.54799 22.9963 9.56937 9.90412
lowerback 49.6271 -6.3548 13.0951
upperback 13.0456 -0.345035 4.45331
thorax -5.37103 0.0700278 -0.985584
lowerneck -13.8787 -10.7771 -6.65952
upperneck -2.78222 -13.8012 11.5528
head 2.65246 -6.62322 3.56164
rclavicle -4.13472e-014 -3.61788e-014
rhumerus 35.5922 5.04254 -47.4013
rradius 40.5254
rwrist 2.36101
rhand -41.3859 49.7568
rfingers 7.12502
rthumb -14.3035 20.2694
lclavicle -4.13472e-014 -3.61788e-014
lhumerus -13.3667 -15.6282 92.0397
lradius 66.0041
lwrist 38.6006
lhand -29.7208 13.6545
lfingers 7.12502
lthumb -3.04785 43.6125
rfemur -100.382 -17.1621 7.31075
rtibia 105.335
rfoot -21.3449 -0.746868
rtoes -3.89144
lfemur -82.2212 -11.0071 -43.5009
ltibia 110.041
lfoot -46.0261 35.6006
ltoes -2.95236
1121
root 9.94498 11.339 -2.552 22.4988 9.57703 9.65982
lowerback 50.1964 -6.67732 13.6767
upperback 12.891 -0.383701 3.96464
thorax -5.56621 0.0817816 -1.71085
lowerneck -13.6386 -10.7987 -6.24679
upperneck -2.79981 -13.9106 11.9201
head 2.6251 -6.67636 3.60893
rclavicle 9.54166e-015 -7.55382e-014
rhumerus 34.8807 4.6084 -48.4468
rradius 40.8137
rwrist 3.45673
rhand -42.1394 50.8682
rfingers 7.12502
rthumb -15.0295 21.4337
lclavicle 9.54166e-015 -7.55382e-014
lhumerus -13.2943 -16.0651 91.4043
lradius 65.9408
lwrist 38.5638
lhand -29.7467 12.9929
lfingers 7.12502
lthumb -3.07281 42.9505
rfemur -100.02 -16.8887 7.39091
rtibia 105.629
rfoot -21.7715 -0.968756
rtoes -4.75919
lfemur -82 -10.7707 -43.3313
ltibia 110.4
lfoot -46.1536 35.6529
ltoes -2.97312
1122
root 9.9435 11.3052 -2.55246 22.4563 9.91342 9.60343
lowerback 49.836 -6.81253 13.9162
upperback 13.0673 -0.483331 4.09911
thorax -5.31016 0.0554036 -1.64436
lowerneck -13.8928 -10.8524 -6.87128
upperneck -2.55314 -13.9149 12.4635
head 2.8282 -6.64005 3.83895
rclavicle -3.81667e-014 1.39149e-014
rhumerus 34.8527 4.42095 -48.5584
rradius 41.0558
rwrist 3.92786
rhand -42.5781 51.8645
rfingers 7.12502
rthumb -15.4521 22.4622
lclavicle -3.81667e-014 1.39149e-014
lhumerus -12.8624 -16.0174 91.4929
lradius 65.7079
lwrist 38.2143
lhand -29.9423 12.6603
lfingers 7.12502
lthumb -3.26176 42.6151
rfemur -100.188 -17.1561 7.50675
rtibia 106.031
rfoot -22.1584 -0.670792
rtoes -4.76229
lfemur -82.1587 -11.0257 -43.2183
ltibia 110.701
lfoot -46.116 35.8152
ltoes -3.644
1123
root 9.94804 11.2807 -2.55432 22.453 10.0356 9.67382
lowerback 49.4167 -6.8153 13.8334
upperback 13.3944 -0.605542 4.28398
thorax -4.90607 0.0193454 -1.38629
lowerneck -14.3531 -10.8698 -7.48047
upperneck -2.4147 -13.8471 12.8119
head 3.00523 -6.57142 4.01294
rclavicle -9.85972e-014 -1.04163e-013
rhumerus 35.1491 4.19193 -48.6099
rradius 41.2499
rwrist 4.09435
rhand -42.4738 52.1452
rfingers 7.12502
rthumb -15.3516 22.735
lclavicle -9.85972e-014 -1.04163e-013
lhumerus -12.3743 -15.8728 91.6086
lradius 65.8309
lwrist 38.3745
lhand -30.358 13.403
lfingers 7.12502
lthumb -3.6632 43.3513
rfemur -100.305 -17.3504 7.39642
rtibia 106.315
rfoot -22.4059 -0.413272
rtoes -4.44036
lfemur -82.2081 -11.3099 -43.2735
ltibia 110.877
lfoot -45.9685 36.2711
ltoes -5.1362
1124
root 9.94838 11.2616 -2.55447 22.3495 10.1526 9.7197
lowerback 49.2481 -6.85539 13.7136
upperback 13.6474 -0.737186 4.43218
thorax -4.61811 -0.0292622 -1.13499
lowerneck -14.9083 -10.8625 -7.80376
upperneck -2.27843 -13.7711 12.8875
head 3.15145 -6.50625 4.06309
rclavicle 4.13472e-014 1.47101e-014
rhumerus 35.297 3.86623 -48.9451
rradius 41.7652
rwrist 4.18838
rhand -42.1876 51.9372
rfingers 7.12502
rthumb -15.0759 22.5062
lclavicle 4.13472e-014 1.47101e-014
lhumerus -11.8632 -15.6206 91.6292
lradius 65.9077
lwrist 38.8993
lhand -30.7645 13.4142
lfingers 7.12502
lthumb -4.05571 43.3553
rfemur -100.211 -17.4544 7.29279
rtibia 106.493
rfoot -22.7245 -0.518522
rtoes -4.8659
lfemur -82.0622 -11.5007 -43.3118
ltibia 111.031
lfoot -46.128 36.5288
ltoes -4.85206
1125
root 9.94577 11.2476 -2.55606 22.2973 10.0889 9.74511
lowerback 49.2068 -6.76149 13.7047
upperback 13.4912 -0.64642 4.30294
thorax -4.78503 0.00696478 -1.30838
lowerneck -14.1928 -10.8512 -7.45814
upperneck -2.42184 -13.8352 12.8883
head 2.98304 -6.5681 4.04067
rclavicle 6.67916e-014 -1.70955e-014
rhumerus 34.4003 3.48173 -49.8032
rradius 42.5308
rwrist 4.12732
rhand -41.7199 51.2501
rfingers 7.12502
rthumb -14.6253 21.7858
lclavicle 6.67916e-014 -1.70955e-014
lhumerus -11.9986 -15.8645 91.4835
lradius 65.8581
lwrist 38.826
lhand -30.8885 12.3841
lfingers 7.12502
lthumb -4.17549 42.3229
rfemur -100.349 -17.3964 7.25954
rtibia 106.667
rfoot -22.8969 -0.708168
rtoes -5.86408
lfemur -82.108 -11.3822 -43.421
ltibia 111.184
lfoot -46.0201 36.561
ltoes -3.31005
1126
root 9.95048 11.2489 -2.56251 22.1735 9.94508 9.75936
lowerback 49.2955 -6.52982 13.4853
upperback 13.3606 -0.453352 4.3624
thorax -4.95032 0.0718007 -1.2244
lowerneck -13.7969 -10.9384 -7.15935
upperneck -2.52992 -14.001 12.6891
head 2.86763 -6.67633 3.94179
rclavicle -5.40694e-014 0
rhumerus 33.567 3.05242 -50.4676
rradius 43.6092
rwrist 3.85238
rhand -40.9939 49.7116
rfingers 7.12502
rthumb -13.9257 20.198
lclavicle -5.40694e-014 0
lhumerus -12.063 -15.957 91.6324
lradius 65.7937
lwrist 38.5186
lhand -30.9953 12.3308
lfingers 7.12502
lthumb -4.27862 42.2676
rfemur -100.394 -17.2778 7.24671
rtibia 106.739
rfoot -22.938 -1.01432
rtoes -7.99823
lfemur -82.0438 -11.1388 -43.5862
ltibia 111.216
lfoot -45.6673 36.651
ltoes -3.80425
1127
root 9.95282 11.2492 -2.56759 21.9993 9.87617 9.79741
lowerback 48.8881 -6.90151 14.1189
upperback 13.5629 -0.776196 3.53922
thorax -4.64857 0.0195215 -2.27364
lowerneck -13.8216 -10.9768 -6.22548
upperneck -2.67558 -14.1876 12.8672
head 2.79751 -6.77485 3.84085
rclavicle -6.36111e-015 1.19271e-015
rhumerus 32.4417 1.68451 -52.8271
rradius 45.2788
rwrist 4.3751
rhand -40.2804 47.9258
rfingers 7.12502
rthumb -13.2381 18.3662
lclavicle -6.36111e-015 1.19271e-015
lhumerus -11.7717 -16.6356 90.5047
lradius 65.8818
lwrist 39.0218
lhand -31.5809 12.5028
lfingers 7.12502
lthumb -4.84402 42.4274
rfemur -100.196 -17.1901 7.14759
rtibia 106.722
rfoot -22.8404 -1.19386
rtoes -8.70671
lfemur -81.8507 -10.9991 -43.7011
ltibia 111.211
lfoot -45.2399 36.988
ltoes -5.63075
1128
root 9.95128 11.2435 -2.56691 21.9832 9.68114 9.75136
lowerback 48.6034 -6.42366 13.6618
upperback 13.8148 -0.47182 3.97443
thorax -4.34387 0.139183 -1.75123
lowerneck -14.5675 -11.0778 -6.54442
upperneck -2.49035 -14.2566 12.7134
head 2.98055 -6.78111 3.79563
rclavicle -4.13472e-014 -2.70347e-014
rhumerus 31.2891 1.04754 -52.9351
rradius 47.3013
rwrist 4.2325
rhand -39.9296 47.0179
rfingers 7.12502
rthumb -12.9 17.4366
lclavicle -4.13472e-014 -2.70347e-014
lhumerus -11.3409 -16.5348 91.0265
lradius 65.93
lwrist 39.2328
lhand -32.2901 11.8279
lfingers 7.12502
lthumb -5.52887 41.7357
rfemur -100.115 -16.9091 6.9723
rtibia 106.683
rfoot -22.5466 -0.981864
rtoes -6.3996
lfemur -81.9553 -10.8575 -43.6491
ltibia 111.289
lfoot -44.995 37.2128
ltoes -6.49124
